<?xml version="1.0" standalone="no"?>

<svg version="1.0" xmlns="http://www.w3.org/2000/svg"
 width="690.000000pt" height="545.000000pt" viewBox="0 0 690.000000 545.000000"
 preserveAspectRatio="xMidYMid meet">

<g transform="translate(0.000000,545.000000) scale(0.100000,-0.100000)"
fill="#0D6936" stroke="none">
<path d="M4160 4809 c-155 -18 -282 -82 -401 -200 -60 -59 -86 -94 -118 -161
-55 -114 -61 -119 -136 -106 -34 5 -115 7 -186 3 l-127 -6 -42 78 c-84 154
-239 272 -420 320 -86 23 -252 23 -340 -1 -120 -32 -227 -93 -311 -176 -127
-127 -179 -253 -179 -438 0 -85 5 -117 26 -180 28 -85 92 -187 153 -247 23
-21 41 -45 41 -52 0 -8 -15 -44 -34 -81 -154 -306 -263 -672 -283 -944 -4 -63
-10 -88 -19 -88 -8 0 -87 37 -176 83 -314 161 -543 218 -736 183 -180 -32
-282 -122 -313 -273 -32 -157 58 -412 239 -679 105 -156 184 -250 345 -413
220 -222 368 -344 602 -496 64 -42 115 -81 113 -87 -6 -16 16 -14 -383 -33
-55 -3 -215 -7 -355 -11 -140 -3 -280 -10 -310 -15 -98 -16 -141 -72 -80 -104
49 -25 108 -28 365 -16 652 30 991 41 1095 35 115 -6 116 -6 148 21 18 15 32
33 32 41 0 19 -60 56 -155 95 -303 124 -681 404 -963 712 -296 324 -485 668
-485 884 1 89 38 164 97 192 143 70 451 -28 799 -253 103 -66 134 -102 142
-164 61 -455 190 -776 440 -1097 174 -223 401 -375 561 -375 73 0 107 19 135
77 21 42 24 62 23 163 0 98 -4 128 -28 200 -106 320 -412 726 -780 1034 -64
54 -122 108 -127 119 -28 51 -17 356 17 493 28 111 25 111 153 -9 213 -202
423 -315 730 -391 174 -44 243 -51 501 -50 204 1 264 4 361 22 135 25 284 70
384 118 197 93 415 274 570 474 69 89 78 89 104 -9 34 -127 103 -493 97 -517
-3 -12 -78 -94 -165 -183 -240 -241 -402 -466 -527 -726 -119 -248 -153 -410
-129 -603 15 -123 34 -144 125 -143 72 0 63 -5 211 127 150 134 320 310 395
409 61 80 160 243 190 313 48 109 68 168 95 277 26 102 31 146 36 295 l5 175
32 33 c44 47 207 154 323 211 310 155 508 144 583 -31 45 -104 23 -302 -56
-502 -162 -410 -571 -884 -989 -1147 -142 -89 -188 -107 -359 -135 -162 -27
-246 -46 -307 -71 -32 -12 -39 -20 -39 -43 0 -34 30 -56 100 -72 66 -15 199 1
373 46 98 25 164 36 257 41 69 3 195 13 280 20 85 8 263 19 395 25 322 15 589
37 654 54 65 17 101 48 85 74 -26 42 -90 53 -219 39 -175 -20 -259 -26 -610
-43 -71 -3 -188 -9 -260 -14 -71 -4 -134 -5 -138 -3 -13 8 40 59 143 136 332
250 690 698 831 1042 181 441 103 735 -213 810 -213 50 -464 -18 -813 -219
-44 -25 -84 -45 -89 -43 -6 2 -26 84 -47 183 -44 219 -70 319 -114 450 -65
190 -126 314 -220 450 -11 15 -10 16 63 136 60 97 84 175 90 293 5 122 -10
194 -69 314 -89 180 -266 305 -484 340 -105 17 -138 18 -205 10z m202 -149
c179 -55 305 -199 345 -397 16 -75 16 -87 1 -173 -22 -122 -63 -205 -143 -286
-180 -184 -443 -183 -632 3 -122 119 -178 304 -142 475 28 137 137 288 243
337 62 28 179 60 227 60 20 1 66 -8 101 -19z m-1626 -80 c130 -63 231 -190
263 -330 15 -64 13 -186 -4 -249 -52 -196 -212 -343 -390 -358 -140 -11 -262
36 -364 141 -103 108 -149 236 -138 386 11 137 62 245 161 338 134 127 305
153 472 72z m764 -373 l65 -12 11 -75 c7 -41 17 -95 24 -120 28 -103 112 -237
187 -296 206 -163 457 -205 708 -119 102 36 107 36 120 18 23 -29 81 -143 105
-202 l21 -54 -35 -32 c-22 -20 -52 -69 -80 -128 -55 -119 -106 -190 -211 -292
-199 -194 -413 -307 -661 -349 -446 -76 -875 1 -1204 215 -87 57 -264 236
-328 332 -44 66 -52 86 -52 124 0 47 49 184 98 277 l26 48 56 -7 c284 -38 444
-11 607 105 152 106 246 271 260 455 7 92 14 112 45 118 47 9 175 6 238 -6z
m1458 -2071 c3 -78 -26 -198 -88 -363 -66 -175 -152 -307 -324 -497 -121 -134
-170 -176 -205 -176 -18 0 -13 90 9 174 40 150 111 310 214 476 100 162 353
466 380 457 6 -2 12 -34 14 -71z m-2841 -98 c54 -36 220 -220 335 -371 189
-248 292 -463 313 -652 8 -69 -6 -92 -49 -81 -44 11 -159 110 -244 211 -193
229 -327 487 -398 764 -27 104 -32 177 -11 165 6 -4 31 -20 54 -36z"/>
<path d="M4163 4300 c-18 -11 -35 -31 -39 -46 -9 -34 10 -139 31 -170 32 -49
140 -50 193 -1 19 18 22 30 22 98 0 43 -3 85 -6 94 -18 45 -142 61 -201 25z"/>
<path d="M2550 4312 c-39 -19 -48 -41 -49 -122 -1 -81 7 -100 50 -120 52 -23
121 -13 157 23 21 22 27 38 30 91 2 36 2 76 -2 90 -12 50 -118 72 -186 38z"/>
</g>
</svg>
