<?xml version="1.0" standalone="no"?>

<svg version="1.0" xmlns="http://www.w3.org/2000/svg"
 width="634.000000pt" height="515.000000pt" viewBox="0 0 634.000000 515.000000"
 preserveAspectRatio="xMidYMid meet">

<g transform="translate(0.000000,515.000000) scale(0.100000,-0.100000)"
fill="#ffffff " stroke="none">
<path d="M3666 3950 c-129 -22 -265 -128 -330 -258 l-36 -72 -194 1 -194 0
-31 63 c-87 178 -308 291 -502 258 -150 -26 -288 -130 -353 -264 -81 -168 -64
-354 44 -496 22 -29 40 -57 40 -62 0 -5 -27 -57 -59 -115 -33 -58 -76 -145
-96 -193 -43 -99 -97 -304 -118 -446 -8 -53 -18 -100 -21 -104 -4 -4 -33 8
-64 26 -160 93 -389 177 -512 188 -129 11 -274 -40 -324 -116 -121 -183 -50
-492 187 -813 33 -45 110 -131 171 -191 195 -190 359 -306 555 -391 62 -26
108 -52 104 -56 -5 -5 -252 -10 -548 -11 l-540 -3 -3 -27 c-2 -18 3 -30 16
-37 24 -13 1345 -26 1387 -14 24 7 31 16 33 40 2 16 -3 34 -10 40 -7 5 -69 28
-138 50 -316 103 -512 214 -727 415 -144 133 -206 203 -278 314 -162 247 -218
473 -151 603 39 74 142 118 257 108 122 -10 367 -108 510 -202 l69 -47 0 -83
c0 -122 27 -296 61 -400 84 -251 272 -507 503 -687 121 -94 138 -102 182 -88
56 19 69 49 67 160 -3 167 -35 257 -182 503 -103 174 -229 334 -395 502 l-138
140 6 83 c10 134 80 432 102 432 2 0 37 -25 77 -55 138 -106 382 -209 607
-256 147 -31 415 -38 566 -15 238 37 438 101 588 188 39 23 117 77 174 120 57
44 110 77 118 74 25 -9 125 -362 148 -525 l7 -43 -136 -130 c-74 -72 -166
-169 -204 -217 -156 -196 -334 -507 -409 -714 -39 -107 -43 -194 -12 -245 26
-42 54 -52 116 -41 141 26 352 194 469 374 162 247 249 512 262 793 7 143 -1
131 156 228 130 81 217 120 332 150 222 57 336 -1 361 -183 12 -97 -11 -181
-97 -350 -94 -184 -124 -232 -240 -384 -153 -200 -300 -326 -509 -433 -145
-74 -227 -102 -363 -121 -103 -14 -127 -25 -127 -56 0 -41 31 -47 208 -42 92
3 409 10 705 16 l539 12 18 23 c23 28 17 48 -18 60 -16 5 -131 6 -277 1 -330
-10 -675 -11 -675 -1 0 4 48 34 106 67 212 119 387 291 569 559 69 102 195
344 226 433 43 126 33 273 -25 379 -41 73 -77 98 -172 120 -157 35 -363 -24
-614 -175 -47 -28 -90 -51 -97 -51 -6 0 -19 34 -28 78 -66 308 -154 551 -256
708 -21 33 -39 66 -39 73 0 7 15 30 33 52 159 185 156 455 -7 636 -48 53 -150
113 -221 131 -62 16 -155 21 -209 12z m182 -94 c188 -50 320 -252 283 -434
-33 -167 -147 -279 -318 -312 -104 -21 -231 17 -320 94 -61 53 -114 165 -121
254 -5 82 15 165 60 234 40 63 135 134 207 154 31 8 61 17 66 19 24 8 94 4
143 -9z m-1225 -34 c239 -118 296 -437 112 -626 -210 -216 -577 -123 -660 168
-47 162 27 347 173 438 108 67 262 75 375 20z m646 -291 c10 -6 18 -36 22 -83
30 -309 323 -501 616 -403 42 14 77 24 78 23 32 -37 115 -175 115 -192 0 -28
-70 -92 -195 -178 -166 -115 -348 -185 -598 -228 -112 -20 -151 -22 -325 -17
-164 4 -214 9 -302 30 -308 74 -620 243 -620 335 0 15 27 78 61 140 l60 112
31 -16 c100 -52 225 -73 323 -55 85 15 196 73 255 132 81 81 140 219 140 325
0 79 12 84 185 84 77 0 147 -4 154 -9z m1031 -1562 c0 -74 -28 -222 -62 -329
-30 -95 -127 -295 -185 -381 -91 -134 -285 -301 -386 -331 -35 -11 -41 -10
-53 7 -20 27 -17 56 11 140 68 204 253 528 417 730 80 98 235 248 248 240 6
-3 10 -37 10 -76z m-2259 -46 c63 -65 151 -167 196 -227 103 -138 238 -375
270 -474 26 -81 44 -252 26 -252 -36 0 -243 175 -329 278 -99 120 -206 306
-250 436 -48 141 -72 356 -40 356 7 0 65 -53 127 -117z"/>
<path d="M3717 3562 c-23 -25 -24 -148 -1 -180 35 -50 74 -14 73 66 -1 105
-34 157 -72 114z"/>
<path d="M2416 3558 c-19 -26 -22 -148 -6 -179 12 -21 50 -25 68 -7 7 7 12 43
12 93 0 67 -3 85 -18 98 -25 23 -38 21 -56 -5z"/>
</g>
</svg>
