<?xml version="1.0" standalone="no"?>

<svg version="1.0" xmlns="http://www.w3.org/2000/svg"
 width="697.000000pt" height="547.000000pt" viewBox="0 0 697.000000 547.000000"
 preserveAspectRatio="xMidYMid meet">

<g transform="translate(0.000000,547.000000) scale(0.100000,-0.100000)"
fill="#000000" stroke="none">
<path d="M2735 4409 c-58 -13 -112 -38 -175 -80 -152 -101 -231 -264 -217
-450 8 -97 36 -173 95 -250 l46 -62 -33 -56 c-59 -103 -148 -295 -174 -376
-32 -103 -64 -246 -80 -359 -7 -49 -17 -91 -23 -93 -5 -2 -43 17 -84 42 -79
47 -288 134 -381 159 -143 37 -250 30 -364 -25 -74 -35 -117 -94 -140 -189
-19 -84 -19 -116 4 -225 49 -240 208 -497 440 -714 226 -212 329 -282 584
-394 31 -14 57 -31 57 -37 0 -8 -150 -11 -551 -9 -584 2 -568 3 -569 -42 0
-46 32 -48 809 -49 594 -1 645 0 662 16 47 42 15 74 -108 108 -110 31 -377
143 -459 192 -166 100 -399 301 -518 448 -114 139 -215 328 -251 467 -19 72
-19 209 -1 252 28 67 107 119 201 131 126 17 427 -91 618 -223 l47 -32 0 -87
c0 -97 21 -260 46 -355 48 -188 222 -476 380 -628 38 -36 115 -100 172 -142
81 -60 111 -77 137 -77 47 0 64 8 80 41 20 37 19 191 0 284 -26 123 -161 371
-310 570 -99 131 -260 311 -338 378 -31 27 -60 60 -63 73 -16 64 72 471 130
598 58 130 136 277 150 282 7 3 48 -9 92 -27 115 -46 214 -51 327 -15 90 28
176 82 235 150 65 74 112 199 112 296 0 89 5 91 196 88 l159 -3 12 -84 c6 -46
19 -105 29 -130 91 -243 355 -367 605 -285 78 26 80 26 95 8 31 -40 115 -187
138 -242 61 -147 150 -470 162 -590 l6 -57 -127 -119 c-69 -65 -161 -162 -204
-215 -232 -286 -472 -747 -471 -905 0 -51 31 -121 61 -136 78 -42 282 61 444
225 130 133 277 403 339 625 27 96 56 292 56 381 0 100 2 103 135 187 322 204
611 244 692 97 29 -53 42 -144 33 -228 -6 -54 -21 -96 -81 -220 -91 -190 -127
-250 -237 -396 -167 -222 -326 -361 -543 -471 -154 -79 -238 -107 -368 -126
-58 -8 -110 -19 -118 -25 -17 -14 -17 -53 0 -67 12 -10 419 -5 1205 16 255 7
275 8 288 26 17 24 17 28 0 52 -14 18 -27 19 -283 16 -147 -2 -356 -7 -463
-11 -277 -10 -286 -6 -154 66 222 123 431 334 622 626 66 101 199 370 215 434
7 29 13 99 12 155 -1 110 -15 159 -72 241 -33 48 -59 61 -157 82 -166 34 -359
-21 -626 -179 -52 -31 -99 -55 -104 -53 -5 2 -24 70 -42 152 -63 283 -137 485
-237 645 -26 41 -47 82 -47 90 0 9 12 27 26 41 53 50 104 152 121 244 15 80
15 93 -1 173 -30 154 -111 266 -243 334 -85 45 -168 62 -275 56 -70 -3 -95
-10 -160 -41 -92 -45 -182 -136 -228 -233 l-30 -64 -199 0 -200 0 -30 63 c-89
186 -339 310 -536 266z m1588 -111 c83 -39 177 -136 207 -213 30 -78 33 -198
7 -273 -75 -214 -327 -320 -537 -226 -79 35 -169 129 -201 211 -32 81 -32 204
1 288 39 101 163 208 274 236 17 4 67 7 111 6 63 -2 92 -8 138 -29z m-1323 -9
c166 -79 262 -267 225 -442 -55 -264 -338 -401 -578 -280 -219 110 -284 387
-140 595 34 50 116 111 183 137 82 31 233 26 310 -10z m-615 -1921 c172 -177
318 -378 437 -604 61 -116 76 -159 92 -269 16 -108 9 -142 -26 -124 -83 44
-274 220 -354 325 -159 212 -239 405 -264 639 -17 158 -9 160 115 33z m2342 8
c-20 -253 -134 -559 -284 -762 -87 -117 -250 -252 -350 -290 -63 -24 -78 -13
-77 57 3 128 204 518 404 784 80 105 269 295 295 295 16 0 17 -8 12 -84z"/>
<path d="M4128 4029 c-15 -8 -18 -24 -18 -90 0 -96 10 -119 50 -119 37 0 45
25 37 122 -8 91 -25 113 -69 87z"/>
<path d="M2796 4024 c-12 -11 -16 -36 -16 -98 0 -93 12 -120 51 -114 23 3 24
6 27 102 3 98 -5 126 -34 126 -7 0 -20 -7 -28 -16z"/>
<path d="M3112 3084 c-32 -22 -30 -71 4 -84 40 -16 723 -13 754 3 34 17 39 60
8 81 -20 14 -69 16 -383 16 -310 0 -364 -2 -383 -16z"/>
</g>
</svg>
