<?xml version="1.0" standalone="no"?>
<svg version="1.0" xmlns="http://www.w3.org/2000/svg"
 width="659.000000pt" height="599.000000pt" viewBox="0 0 659.000000 599.000000"
 preserveAspectRatio="xMidYMid meet">

<g transform="translate(0.000000,599.000000) scale(0.100000,-0.100000)"
fill="#000000" stroke="none">
<path d="M3857 4390 c-21 -6 -72 -26 -112 -46 -96 -47 -190 -143 -243 -250
l-36 -74 -217 0 -217 0 -16 41 c-43 107 -144 217 -247 269 -247 126 -538 48
-691 -185 -121 -184 -109 -452 26 -614 20 -24 36 -50 36 -58 0 -8 -25 -58 -55
-111 -122 -217 -204 -462 -241 -719 -21 -141 -21 -141 -100 -91 -135 86 -392
183 -533 200 -169 21 -324 -30 -389 -126 -120 -180 -71 -468 136 -801 162
-260 513 -570 802 -707 167 -79 171 -81 167 -92 -3 -8 -181 -12 -587 -14 -410
-1 -587 -5 -597 -13 -20 -17 -16 -47 9 -63 20 -12 141 -15 789 -18 822 -3 799
-4 799 47 0 34 -26 50 -136 84 -122 37 -378 141 -454 183 -181 101 -474 348
-600 505 -215 268 -334 591 -280 760 42 129 201 192 381 149 155 -36 430 -161
523 -238 34 -28 36 -32 36 -93 0 -102 19 -262 45 -380 19 -85 40 -140 89 -240
102 -206 170 -301 330 -461 267 -266 393 -311 437 -153 17 64 -9 262 -49 361
-34 85 -151 298 -224 408 -86 128 -237 309 -380 452 -76 76 -138 147 -138 157
0 44 32 237 43 260 17 35 97 80 267 152 181 77 254 102 400 139 240 60 280 64
610 65 335 0 402 -7 673 -75 209 -52 527 -170 574 -213 22 -19 47 -109 74
-262 14 -83 4 -108 -69 -169 -241 -198 -468 -499 -637 -841 -109 -221 -145
-324 -145 -417 0 -123 49 -177 142 -157 117 25 235 99 383 241 160 151 326
462 389 729 28 116 56 325 56 418 l0 61 108 71 c203 132 385 205 544 216 190
14 278 -74 278 -277 0 -105 -18 -157 -126 -370 -96 -188 -181 -314 -343 -505
-126 -149 -311 -290 -515 -389 -126 -62 -216 -90 -364 -110 -111 -16 -132 -26
-132 -61 0 -53 10 -53 516 -40 77 2 349 9 606 14 315 7 475 15 492 22 19 9 26
20 26 41 0 52 -12 53 -433 40 -446 -14 -644 -15 -651 -3 -3 4 18 21 47 36 244
130 423 287 607 530 112 147 166 236 263 431 102 203 124 294 106 437 -10 85
-64 202 -110 241 -47 40 -130 60 -239 60 -176 -1 -308 -44 -530 -175 -84 -49
-156 -89 -160 -89 -7 0 -29 96 -56 245 -8 44 -23 103 -33 130 -11 28 -33 95
-51 150 -41 127 -104 263 -164 350 -25 37 -46 75 -46 85 0 10 21 42 46 72 139
162 163 390 61 582 -87 164 -243 260 -439 270 -51 3 -110 1 -131 -4z m287
-133 c53 -27 90 -55 134 -101 73 -79 102 -147 109 -261 5 -68 2 -91 -20 -153
-68 -197 -255 -311 -462 -281 -178 25 -316 159 -356 346 -34 164 63 358 220
437 133 68 255 72 375 13z m-1442 -4 c116 -54 201 -152 239 -274 65 -207 -47
-443 -247 -523 -94 -38 -231 -41 -316 -7 -79 31 -173 102 -208 158 -56 89 -74
149 -74 253 0 106 19 166 81 251 115 161 350 224 525 142z m738 -333 c5 -8 10
-35 10 -60 0 -168 134 -377 284 -446 136 -62 288 -70 417 -21 36 14 70 22 75
18 6 -3 36 -48 69 -100 84 -135 172 -347 152 -367 -8 -9 -60 6 -277 81 -179
62 -401 116 -551 135 -52 6 -124 16 -161 21 -90 12 -319 12 -448 -2 -307 -31
-551 -95 -843 -221 -76 -33 -145 -57 -152 -54 -10 4 -11 14 -3 48 13 59 89
233 152 348 48 88 54 95 81 94 17 -1 59 -14 95 -30 60 -27 74 -29 185 -28 136
0 199 18 293 80 143 94 220 232 238 421 4 40 12 77 18 82 21 17 51 19 204 18
124 -2 155 -5 162 -17z m1134 -1663 c8 -32 -9 -176 -33 -283 -29 -130 -74
-252 -143 -388 -84 -167 -141 -248 -247 -349 -136 -129 -243 -197 -310 -197
-25 0 -30 5 -36 31 -10 45 1 91 56 225 85 205 262 509 403 688 75 96 274 296
295 296 5 0 11 -10 15 -23z m-2603 -9 c43 -32 232 -245 313 -353 69 -91 199
-302 254 -411 16 -32 39 -90 51 -129 24 -78 41 -265 24 -265 -29 0 -152 98
-269 215 -148 146 -218 244 -314 440 -65 135 -96 242 -110 390 -14 139 -6 155
51 113z"/>
<path d="M3932 3964 c-20 -14 -22 -24 -22 -98 0 -66 4 -89 18 -106 27 -33 68
-21 77 21 10 46 -4 161 -22 182 -20 21 -23 21 -51 1z"/>
<path d="M2484 3955 c-14 -21 -16 -42 -11 -111 5 -87 16 -114 47 -114 35 0 45
29 45 125 0 97 -10 125 -46 125 -10 0 -26 -11 -35 -25z"/>
</g>
</svg>
